HIERARCHY
ROOT root
{
	OFFSET 0.000000 0.000000 0.000000
	CHANNELS 6 Xposition Yposition Zposition Zrotation Yrotation Xrotation
	JOINT lhip
	{
		OFFSET 0.058581 -0.082280 -0.017664
		CHANNELS 3 Zrotation Yrotation Xrotation
		JOINT lknee
		{
			OFFSET 0.043451 -0.386469 0.008037
			CHANNELS 3 Zrotation Yrotation Xrotation
			JOINT lankle
			{
				OFFSET -0.014790 -0.426874 -0.037428
				CHANNELS 3 Zrotation Yrotation Xrotation
				JOINT ltoe
				{
					OFFSET 0.041054 -0.060286 0.122042
					CHANNELS 3 Zrotation Yrotation Xrotation
					End Site
					{
						OFFSET 0.000000 0.000000 0.000000
					}
				}
			}
		}
	}
	JOINT rhip
	{
		OFFSET -0.060310 -0.090513 -0.013543
		CHANNELS 3 Zrotation Yrotation Xrotation
		JOINT rknee
		{
			OFFSET -0.043257 -0.383688 -0.004843
			CHANNELS 3 Zrotation Yrotation Xrotation
			JOINT rankle
			{
				OFFSET 0.019056 -0.420046 -0.034562
				CHANNELS 3 Zrotation Yrotation Xrotation
				JOINT rtoe
				{
					OFFSET -0.034840 -0.062106 0.130323
					CHANNELS 3 Zrotation Yrotation Xrotation
					End Site
					{
						OFFSET 0.000000 0.000000 0.000000
					}
				}
			}
		}
	}
	JOINT lowerback
	{
		OFFSET 0.004439 0.124404 -0.038385
		CHANNELS 3 Zrotation Yrotation Xrotation
		JOINT upperback
		{
			OFFSET 0.004488 0.137956 0.026820
			CHANNELS 3 Zrotation Yrotation Xrotation
			JOINT chest
			{
				OFFSET -0.002265 0.056032 0.002855
				CHANNELS 3 Zrotation Yrotation Xrotation
				JOINT lowerneck
				{
					OFFSET -0.013390 0.211636 -0.033468
					CHANNELS 3 Zrotation Yrotation Xrotation
					JOINT upperneck
					{
						OFFSET 0.010113 0.088937 0.050410
						CHANNELS 3 Zrotation Yrotation Xrotation
						End Site
						{
							OFFSET 0.000000 0.000000 0.000000
						}
					}
				}
				JOINT lclavicle
				{
					OFFSET 0.071702 0.114000 -0.018898
					CHANNELS 3 Zrotation Yrotation Xrotation
					JOINT lshoulder
					{
						OFFSET 0.122921 0.045205 -0.019046
						CHANNELS 3 Zrotation Yrotation Xrotation
						JOINT lelbow
						{
							OFFSET 0.255332 -0.015649 -0.022946
							CHANNELS 3 Zrotation Yrotation Xrotation
							JOINT lwrist
							{
								OFFSET 0.265709 0.012698 -0.007375
								CHANNELS 3 Zrotation Yrotation Xrotation
								End Site
								{
									OFFSET 0.000000 0.000000 0.000000
								}
							}
						}
					}
				}
				JOINT rclavicle
				{
					OFFSET -0.082954 0.112472 -0.023707
					CHANNELS 3 Zrotation Yrotation Xrotation
					JOINT rshoulder
					{
						OFFSET -0.113228 0.046853 -0.008472
						CHANNELS 3 Zrotation Yrotation Xrotation
						JOINT relbow
						{
							OFFSET -0.260127 -0.014369 -0.031269
							CHANNELS 3 Zrotation Yrotation Xrotation
							JOINT rwrist
							{
								OFFSET -0.269108 0.006794 -0.006027
								CHANNELS 3 Zrotation Yrotation Xrotation
								End Site
								{
									OFFSET 0.000000 0.000000 0.000000
								}
							}
						}
					}
				}
			}
		}
	}
}
MOTION
Frames: 17
Frame Time: 0.033333
-0.043244 2.133847 0.963380 5.462021 1.173150 89.374023 18.977772 9.692728 -12.381061 1.709142 14.916644 10.859555 2.834063 15.902572 -1.018984 0.000000 -0.000000 0.000000 5.040362 -4.749551 -4.328042 7.810432 -8.566025 9.655621 -3.652426 -12.575968 -20.950405 0.000000 -0.000000 0.000000 -0.804767 1.744740 16.033003 1.975315 -1.149115 -7.472238 2.207256 -2.016967 0.495989 8.443548 -10.506778 -7.882018 0.215840 -15.695493 9.713425 -28.621797 -1.039833 -1.678317 -49.021867 -8.019446 11.300361 12.862877 -26.805475 -3.660356 8.241337 -0.633150 -7.655347 23.820064 2.901520 -2.885872 49.214587 3.875003 12.342500 -9.423648 26.544014 -3.613348 -3.525284 2.465447 -9.255456 
-0.043813 2.133462 0.963587 5.315281 1.223121 89.409610 19.023274 9.701579 -12.288881 1.835996 14.927024 10.759519 2.855586 15.934405 -0.873125 0.000000 -0.000000 0.000000 5.072554 -4.614903 -4.303620 7.909621 -8.009497 9.879327 -3.504708 -12.137887 -20.493905 0.000000 -0.000000 0.000000 -0.829005 1.818164 16.129185 2.037187 -1.151110 -7.621065 2.231755 -2.013420 0.578081 8.641251 -10.594207 -8.131793 0.409075 -15.694837 9.512573 -28.762319 -1.015332 -1.862671 -48.949065 -8.044203 11.422164 12.859349 -26.893639 -3.662075 8.041816 -0.619570 -7.611036 23.960036 2.885246 -3.024725 48.958063 3.722916 12.486187 -9.530671 26.737851 -3.636920 -3.352595 2.463925 -9.232629 
-0.044570 2.132908 0.963226 5.159294 1.241746 89.486493 19.177390 9.777745 -12.269766 1.776958 14.968989 10.770584 2.886614 15.877187 -0.831543 0.000000 -0.000000 0.000000 5.038103 -4.684766 -4.259302 8.042908 -7.794564 9.852196 -3.422551 -11.794526 -20.240002 0.000000 -0.000000 0.000000 -0.843102 1.811151 16.184396 2.031849 -1.160803 -7.728263 2.272428 -2.087464 0.589604 8.653274 -10.438087 -8.046454 0.510003 -15.454773 9.438609 -28.632327 -0.861043 -1.860182 -49.065998 -7.996380 11.297779 12.864339 -27.089085 -3.589448 7.893659 -0.510809 -7.815924 23.900036 2.816503 -2.979543 49.015891 3.815764 12.418703 -9.604235 26.810777 -3.663712 -3.152480 2.281565 -9.359396 
-0.045438 2.131758 0.962448 4.982319 1.211076 89.635929 19.235669 9.811095 -12.296594 1.800683 14.950356 10.833056 2.796972 15.963976 -0.960676 0.000000 -0.000000 0.000000 4.999517 -4.617652 -4.034621 8.304064 -7.497953 9.307172 -3.357830 -11.875969 -19.991927 0.000000 -0.000000 0.000000 -0.985010 1.772171 15.852744 2.109904 -1.107097 -7.617983 2.336076 -2.185201 0.745557 8.857634 -10.499244 -8.299428 0.401284 -15.608437 9.531625 -28.604552 -0.830556 -1.759270 -49.202568 -8.262323 11.364057 12.882082 -26.729287 -3.425749 9.189284 -0.284669 -7.678105 23.986937 2.727541 -3.165302 48.954210 4.004198 12.374893 -9.709621 26.281185 -3.806720 -4.858615 1.798241 -9.057999 
-0.045761 2.131255 0.962148 4.900424 1.203497 89.698108 19.284933 9.817793 -12.297372 1.722066 14.952821 10.875616 2.859054 15.939366 -1.018306 0.000000 -0.000000 0.000000 4.988376 -4.584318 -3.941807 8.423945 -7.341190 9.119592 -3.346954 -11.835026 -20.003647 0.000000 -0.000000 0.000000 -0.997144 1.775363 15.720993 2.150269 -1.122810 -7.527856 2.341939 -2.217015 0.733484 8.890289 -10.548531 -8.331046 0.339897 -15.693176 9.506601 -28.625853 -0.821407 -1.683932 -49.190842 -8.320535 11.312207 12.695893 -26.787680 -3.298049 9.055770 -0.294393 -7.727122 24.041322 2.691633 -3.187677 48.873565 4.057154 12.369041 -9.781432 26.336286 -3.743425 -5.281564 1.655646 -8.771817 
-0.046545 2.130073 0.961374 4.676757 1.068084 89.915830 19.174969 9.681533 -12.478048 1.565858 14.592066 11.276816 3.556069 15.985134 -1.819079 0.000000 -0.000000 0.000000 5.027810 -4.522525 -3.958067 8.465219 -7.351539 8.495329 -3.216152 -12.415599 -21.068757 0.000000 -0.000000 0.000000 -1.106455 1.780132 15.545643 2.145738 -1.131957 -7.605429 2.339781 -2.250800 0.753465 8.780666 -10.571434 -8.529720 0.336956 -15.574682 9.657509 -28.520824 -0.697431 -1.710475 -49.276707 -8.226098 11.373541 12.787599 -26.812032 -3.349663 8.872939 -0.241541 -7.991214 24.012613 2.545348 -3.404520 49.025465 4.004448 12.392853 -9.624316 26.616259 -3.511714 -4.699066 1.835397 -8.997030 
-0.047448 2.128473 0.961067 4.422558 1.062464 89.971523 19.170372 9.390095 -12.957837 1.417494 13.612061 12.879385 4.479462 16.073967 -4.012619 0.000000 -0.000000 0.000000 5.111804 -4.461095 -3.969901 8.531147 -7.240585 8.587006 -3.273356 -12.478051 -21.832363 0.000000 -0.000000 0.000000 -1.067706 1.834033 15.602682 2.205354 -1.272074 -7.648378 2.330752 -2.221501 0.617081 8.571254 -10.414600 -8.461763 0.461141 -15.313914 9.674535 -28.562450 -0.626587 -1.930350 -49.215107 -7.837505 11.373808 12.830942 -26.918262 -3.558980 8.149151 -0.325925 -8.056886 24.120118 2.618429 -3.517118 48.975072 3.810216 12.381547 -9.152849 27.051328 -3.323613 -2.831718 2.782679 -9.431658 
-0.048508 2.125877 0.960797 4.149015 1.007511 89.755781 19.115371 8.634986 -13.847607 1.294613 12.283859 15.587605 4.870585 16.300134 -7.498361 0.000000 -0.000000 0.000000 5.078109 -4.272412 -3.551415 8.700820 -6.931541 8.675898 -3.248111 -12.650969 -22.397782 0.000000 -0.000000 0.000000 -1.120559 1.893698 15.811363 2.269567 -1.408284 -7.643562 2.345025 -2.200497 0.656752 8.625831 -10.203279 -8.637633 0.392999 -15.140208 9.772496 -28.676416 -0.612776 -1.878227 -49.055521 -7.654787 11.169526 12.689866 -27.010384 -3.329742 9.374558 -0.323202 -8.233667 24.344190 2.835135 -3.369975 48.950339 3.722829 12.238436 -9.493950 26.759483 -3.522528 -5.146717 2.233133 -9.091593 
-0.049782 2.123016 0.959151 3.974556 0.820816 90.189256 18.751388 6.067852 -16.441844 1.144615 10.517641 19.959292 4.876724 17.025722 -12.789064 0.000000 -0.000000 0.000000 4.560130 -4.266436 -4.372808 8.855483 -8.736376 10.023712 -1.896362 -10.140238 -24.988395 0.000000 -0.000000 0.000000 -1.827051 2.279384 14.839875 2.843299 -1.718723 -7.629941 2.529991 -2.111989 1.477100 6.984268 -7.811593 -9.163054 2.264917 -17.117138 10.185665 -27.732683 0.285216 -0.376823 -50.017798 -10.480739 7.126975 10.769927 -26.052396 -0.881384 9.497487 -0.983343 -6.336767 23.987360 2.340249 -2.666925 48.870583 4.753872 9.917171 -6.051009 26.941458 -1.340313 -9.726905 2.386982 -10.535445 
-0.050594 2.119468 0.958913 3.710899 0.640136 89.850809 17.970122 3.472466 -18.337108 0.378463 7.800522 24.480749 4.881111 16.264408 -15.671827 0.000000 -0.000000 0.000000 4.298306 -4.198675 -3.836804 8.930651 -8.472383 10.393906 -1.390011 -9.653906 -25.255581 0.000000 -0.000000 0.000000 -2.023217 2.830642 15.233708 3.101397 -1.990483 -7.607692 2.629735 -2.235635 1.674793 6.725573 -7.089242 -9.344830 2.368044 -16.828264 10.120112 -27.786364 0.275756 -0.208895 -50.141133 -10.433248 6.595821 11.103925 -26.371298 -0.950392 7.725529 -1.052591 -6.029627 24.826051 2.542613 -2.544746 47.625020 4.742215 9.266799 -6.343479 27.477669 -0.048819 -6.059420 2.997913 -8.151102 
-0.051358 2.115470 0.958371 3.424027 0.584318 89.481622 16.973619 1.186794 -20.647890 -1.124260 6.078881 29.330588 4.642870 16.028052 -17.608676 0.000000 -0.000000 0.000000 4.388451 -3.946398 -2.957856 8.936254 -7.992040 9.906398 -1.281411 -10.275581 -25.591350 0.000000 -0.000000 0.000000 -1.894199 3.416450 16.044961 3.234194 -2.149609 -8.146927 2.578774 -2.250238 2.126717 6.795926 -6.581302 -9.436199 2.421653 -16.525864 9.774630 -27.790420 0.199364 -0.535655 -50.107804 -10.398087 6.969872 10.631271 -25.792585 -0.551643 10.840251 -1.332123 -6.575818 25.075463 2.597951 -2.801717 47.400295 4.570982 9.346532 -5.847230 26.478814 -0.417805 -11.412200 2.806921 -8.148632 
-0.051231 2.110946 0.958682 3.240292 0.601141 89.105832 15.571275 -0.028076 -23.362350 -2.008203 6.223474 34.389027 4.862466 15.425922 -18.783680 0.000000 -0.000000 0.000000 4.373945 -3.980544 -2.067071 8.853881 -7.093563 10.134283 -1.077588 -9.712696 -25.006174 0.000000 -0.000000 0.000000 -1.605365 4.028007 16.764832 3.397296 -2.364474 -8.393541 2.563931 -2.092063 2.393018 6.811278 -6.376390 -9.629537 2.562137 -15.953063 9.647931 -28.030955 -0.032298 -0.768926 -50.167818 -10.214863 7.071159 10.772421 -25.513930 -0.798886 10.205203 -1.782796 -6.438102 25.250960 2.633785 -2.909564 47.010353 4.146697 9.449682 -5.581564 26.618856 -0.102754 -9.675720 3.042686 -8.538406 
-0.050892 2.105376 0.958907 2.974602 0.469128 89.067172 13.845600 -0.552324 -26.127047 -2.310908 8.254941 37.734142 5.485562 15.195449 -18.993942 0.000000 -0.000000 0.000000 4.278601 -4.087116 -1.425563 8.689589 -6.566315 9.922283 -0.938107 -9.782036 -25.143763 0.000000 -0.000000 0.000000 -1.508600 4.627241 17.060648 3.519019 -2.476412 -8.809324 2.562159 -1.915096 2.863775 6.720069 -6.252916 -9.410700 2.711036 -15.274808 9.507438 -28.004356 -0.012957 -0.819729 -50.473964 -10.057913 7.215095 10.541134 -25.481353 -0.502087 9.995055 -1.727739 -6.732211 25.338365 2.589172 -2.736964 46.848037 4.135081 9.474006 -5.685884 25.997939 0.017182 -8.985222 2.971053 -8.244670 
-0.050798 2.099256 0.959622 2.496823 0.316288 89.173622 11.912176 -0.310770 -28.450985 -2.136018 11.148610 38.270959 5.720342 15.081617 -19.754013 0.000000 -0.000000 0.000000 4.259584 -4.038162 -0.875996 8.354465 -6.289159 9.444742 -0.469119 -9.851834 -25.663257 0.000000 -0.000000 0.000000 -1.475665 5.261761 17.384377 3.456961 -2.384720 -9.337434 2.557831 -1.649481 3.195477 6.760016 -5.967474 -8.853671 2.933140 -14.608362 9.596660 -27.865857 0.092028 -0.877229 -50.708184 -9.834850 7.278463 10.360248 -25.561131 -0.455371 10.361628 -1.961192 -6.623451 25.267024 2.529830 -2.445105 47.152400 4.177979 9.617349 -5.868107 25.098504 -0.408484 -9.497877 2.902077 -8.047163 
-0.050226 2.092653 0.960328 2.269257 0.191985 89.560771 9.896605 -0.686207 -30.873261 -2.052988 13.657227 36.530985 6.120959 15.063427 -19.570960 0.000000 -0.000000 0.000000 4.268924 -4.176690 -0.498437 8.016572 -6.001870 8.902452 -0.207179 -9.725081 -25.636957 0.000000 -0.000000 0.000000 -1.328741 5.812282 17.445217 3.386443 -2.378330 -9.613465 2.542021 -1.438706 3.324649 6.868513 -5.874413 -8.824731 3.113387 -14.305549 9.728749 -27.859243 0.317645 -1.112516 -50.885762 -9.614750 7.375495 10.510294 -25.295804 -0.619793 10.201205 -2.329065 -6.291670 25.153110 2.459575 -2.349212 47.287711 4.422191 9.804999 -5.950139 24.174668 -0.669414 -8.944488 3.340576 -7.554428 
-0.049792 2.084355 0.960709 1.849052 0.108097 89.895687 8.120933 -1.303829 -32.994456 -2.342610 15.089519 33.459571 6.158569 15.484636 -19.113380 0.000000 -0.000000 0.000000 4.335670 -4.106853 0.035082 7.694519 -5.635380 8.389130 -0.073219 -9.888222 -26.008677 0.000000 -0.000000 0.000000 -1.162056 6.393108 17.440074 3.274267 -2.307933 -9.779425 2.523544 -1.222450 3.592998 7.005898 -5.677015 -9.047460 3.091221 -14.173753 9.730017 -28.032821 0.657465 -1.505572 -50.800581 -9.401370 7.415318 10.597290 -25.038337 -1.037293 10.352093 -2.620552 -5.972654 25.101558 2.347529 -2.391182 47.397645 4.704366 10.163199 -6.037855 23.609488 -1.047493 -8.685876 3.603434 -7.736687 
-0.049211 2.075005 0.960190 1.579736 0.088060 90.262483 6.598303 -2.061245 -35.209910 -2.950494 15.227570 29.582732 6.764998 15.298006 -18.013851 0.000000 -0.000000 0.000000 4.420265 -4.180949 0.655690 7.559102 -5.065378 7.866953 -0.311321 -10.182879 -26.163416 0.000000 -0.000000 0.000000 -0.878471 6.777999 17.437548 3.156812 -2.393328 -10.013486 2.430130 -1.006541 4.049107 7.105544 -5.468007 -9.786698 3.040236 -14.188687 9.891548 -28.166354 0.928811 -1.858672 -50.549970 -8.997448 7.482772 10.900633 -24.852446 -1.550057 10.738152 -2.838887 -5.928092 25.047234 2.414416 -2.462562 47.444496 5.031558 10.570579 -6.008640 23.538020 -1.324492 -8.841488 3.776235 -7.575140 
